<svg xmlns="http://www.w3.org/2000/svg" viewBox="0 0 20 20"><path fill="#d8a353" d="M14.1 15h-.5c-1.6-.1-3.5-.7-5.4-1.6-4-2-6.4-5.1-5.4-7 .5-1 1.7-1.4 3.5-1.3 1.6.1 3.5.7 5.4 1.6 4 2 6.4 5.1 5.4 7-.4.8-1.5 1.3-3 1.3zM5.9 6c-1.1 0-1.9.3-2.1.8-.6 1.2 1.3 3.8 5 5.6 1.7.9 3.5 1.4 5 1.5 1.3.1 2.2-.2 2.5-.8.6-1.2-1.3-3.8-5-5.6-1.7-.9-3.5-1.4-5-1.5h-.4z" class="color000000 svgShape"/><path fill="#d8a353" d="M10 18c-2.1 0-3.8-3.5-3.8-8S7.9 2 10 2s3.8 3.5 3.8 8-1.7 8-3.8 8zm0-15c-1.3 0-2.8 2.9-2.8 7s1.4 7 2.8 7 2.8-2.9 2.8-7-1.5-7-2.8-7z" class="color000000 svgShape"/><path fill="#d8a353" d="M5.9 15c-1.5 0-2.6-.5-3-1.3-1-1.9 1.4-4.9 5.4-7 1.8-.9 3.7-1.5 5.4-1.6 1.8-.1 3 .4 3.5 1.3 1 1.9-1.4 4.9-5.4 7-1.8.9-3.7 1.5-5.4 1.6h-.5zm8.2-9h-.4c-1.5.1-3.2.6-5 1.5-3.7 1.9-5.6 4.5-5 5.6.3.6 1.3.9 2.6.8 1.5-.1 3.2-.6 5-1.5 3.7-1.9 5.6-4.5 5-5.6-.3-.5-1.1-.8-2.2-.8z" class="color000000 svgShape"/><circle cx="10" cy="10" r="1" fill="none" stroke="#8526fe" stroke-miterlimit="10" class="colorStroke000000 svgStroke"/></svg>