<svg xmlns="http://www.w3.org/2000/svg" viewBox="0 0 20 20"><path fill="none" stroke="#34a853" stroke-miterlimit="10" d="M9.4 8.8c.2 0 .4 0 .6-.1l3-1.5c.3-.2.6-.5.6-.9V3c0-.6-.4-1-1-1H6.5c-.6 0-1 .4-1 1v3.4c0 .2.1.5.3.7l.9.5 1.7.9 1 .3zM5.4 5.7L9 2M12.3 1.9L6.7 7.5M13.6 3.9L9 8.5" class="colorStroke000000 svgStroke"/><path fill="none" stroke="#34a853" stroke-linecap="round" stroke-linejoin="round" stroke-miterlimit="10" d="M8.5 9v1.1c-1.7.6-2.7 1.9-2.7 3.9 0 2.2 1.9 4 4.1 4 2.2 0 4.1-1.8 4.1-4 0-.2 0-.5-.2-.6-.6 1.5-2 2.6-3.7 2.6-1.1 0-2-.9-2-2s.6-2 1.8-2c.6 0 .8-.4.8-1V9" class="colorStroke000000 svgStroke"/></svg>