<svg xmlns="http://www.w3.org/2000/svg" viewBox="0 0 20 20"><path fill="#595bd4" d="M15 16.5c-.5 0-1-.4-1-1s.4-1 1-1 1 .5 1 1-.5 1-1 1zM5 16.5c-.5 0-1-.4-1-1s.4-1 1-1 1 .5 1 1-.5 1-1 1zM9.5 13V9.3c-.3-.2-.5-.5-.5-.8 0-.6.4-1 1-1s1 .4 1 1c0 .4-.2.7-.5.8V13h-1z" class="color000000 svgShape"/><path fill="none" stroke="#fe9526" stroke-linecap="round" stroke-linejoin="round" stroke-miterlimit="10" d="M12 5H8L6 8l3 5h2l3-5zM8 2h4v3H8zM12 17H8v-4h4v4z" class="colorStroke000000 svgStroke"/><path fill="#595bd4" d="M12 15h3v1h-3zM5 15h3v1H5z" class="color000000 svgShape"/><path fill="#595bd4" d="M8 14.5c-1.5-.7-2.5-2.3-2.5-4 0-.3-.2-.5-.5-.5s-.5.2-.5.5c0 2.3 1.5 4.3 3.5 5.1v-1.1zm7-4.5c-.3 0-.5.2-.5.5 0 1.8-1 3.3-2.5 4v1.1c2-.8 3.5-2.8 3.5-5.1 0-.3-.2-.5-.5-.5z" class="color000000 svgShape"/></svg>