<svg xmlns="http://www.w3.org/2000/svg" viewBox="0 0 20 20"><path fill="none" stroke="#595bd4" stroke-miterlimit="10" d="M12.7 15.7c.2.2.1.6-.1.7-2.2 1.5-5.1 1.5-7.3-.1-2.3-1.6-3.4-4.6-2.5-7.2.8-2.5 3-4.3 5.7-4.5.3-.1.5.2.5.4v5.8c0 .1 0 .2.1.3l3.6 4.6zM15.2 6.4c.2-.2.6-.2.7 0 1 1.3 1.5 2.9 1.5 4.5-.1 1.6-.9 3.2-2.1 4.3-.2.2-.5.2-.7-.1l-3.3-4.2c-.2-.2-.1-.5 0-.7l3.9-3.8zM11.4 2.2c1.3.1 2.6.7 3.6 1.5.2.2.2.5 0 .7l-3.3 3.2c-.3.3-.9.1-.9-.4V2.7c.1-.3.3-.5.6-.5z" class="colorStroke000000 svgStroke"/></svg>