<svg xmlns="http://www.w3.org/2000/svg" viewBox="0 0 20 20"><path fill="none" stroke="#34a853" stroke-miterlimit="10" d="M11 16.5c1-.1 1.9-.5 2.7-1.3.9-.9 1.3-2.1 1.3-3.2 0-.3-.2-.5-.5-.5-1.2 0-2.3.4-3.2 1.3l-.3.3" class="colorStroke000000 svgStroke"/><path fill="none" stroke="#34a853" stroke-linecap="round" stroke-linejoin="round" stroke-miterlimit="10" d="M8.8 16.5c-1-.1-1.9-.5-2.7-1.3-.9-.9-1.3-2.1-1.3-3.2 0-.3.2-.5.5-.5 1.2 0 2.3.4 3.2 1.3l.3.3" class="colorStroke000000 svgStroke"/><path fill="none" stroke="#34a853" stroke-miterlimit="10" d="M11.1 11c.8-.1 1.5-.5 2.1-1.1.7-.7 1.1-1.6 1.1-2.6 0-.3-.3-.6-.6-.6-.9 0-1.9.4-2.6 1.1-.6.6-.9 1.3-1.1 2.1M8 4.6c.3 1 1 1.7 1.8 2.2.2.1.5 0 .6-.2.4-.8.6-1.8.3-2.8-.3-1-1-1.7-1.8-2.2-.2-.1-.5 0-.6.2-.5.8-.6 1.8-.3 2.8zM8.9 11c-.8-.1-1.5-.5-2.1-1.1-.7-.7-1.1-1.6-1.1-2.5 0-.4.3-.6.6-.6.9 0 1.9.4 2.6 1.1.6.6.9 1.3 1.1 2.1" class="colorStroke000000 svgStroke"/><path fill="none" stroke="#34a853" stroke-miterlimit="10" d="M11 17.5c0 .6-.4 1-1 1s-1-.4-1-1v-7c0-.6.4-1 1-1s1 .4 1 1v7z" class="colorStroke000000 svgStroke"/><path fill="none" stroke="#34a853" stroke-miterlimit="10" d="M11 17.5c0 .6-.4 1-1 1s-1-.4-1-1v-7c0-.6.4-1 1-1s1 .4 1 1v7z" class="colorStroke000000 svgStroke"/></svg>