<svg xmlns="http://www.w3.org/2000/svg" viewBox="0 0 20 20"><circle cx="10.5" cy="10.3" r="7" fill="none" stroke="#26d7fe" stroke-miterlimit="10" class="colorStroke000000 svgStroke"/><path fill="#d85b53" d="M13.8 14c.1 0 .3-1 .3-2h3.1c.1 0 .2 0 .2-1h-3.2V9h3.2s-.1 0-.2-1h-3.1c-.1 0-.2-1-.3-2h2.4c-.3 0-.5 0-.8-1h-1.9c-.2 0-.5-1-.7-1.5-.5-.2-1-.4-1.6-.4.4.3.9.9 1.2 1.9H8.6c.4-1 .8-1.5 1.3-1.8-.6 0-1.2.1-1.7.2-.3.5-.5 1.6-.7 1.6H5.6c-.3 1-.6 1-.8 1h2.4c-.2 1-.3 2-.3 2H3.8c-.1 1-.2 1-.2 1h3.2v2H3.6c0 1 .1 1 .2 1h3.1c.1 1 .2 2 .3 2H4.8c.3 1 .5 1 .8 1h1.9c.2 1 .5 1.3.7 1.7.5.2 1 .2 1.6.3-.5-.3-.9-1-1.3-2h3.9c-.4 1-.8 1.7-1.3 2.1.6-.1 1.1-.2 1.6-.4.3-.5.5-.7.7-1.7h1.9c.3 0 .6 0 .8-1h-2.3zM8.2 6h4.5c.2 1 .3 2 .4 2H7.9s.2-1 .3-2zm4.6 8H8.2c-.2 0-.3-1-.4-2h5.3c0 1-.2 2-.3 2zm.4-3H7.8V9h5.4v2z" class="color000000 svgShape"/></svg>