<svg xmlns="http://www.w3.org/2000/svg" enable-background="new 0 0 20 20" viewBox="0 0 20 20"><path fill="none" stroke="#4285f4" stroke-linecap="round" stroke-linejoin="round" stroke-miterlimit="10" d="M17.5 17.5h-15c-.6 0-1-.4-1-1v-13c0-.6.4-1 1-1h15c.6 0 1 .4 1 1v13c0 .6-.4 1-1 1z" class="colorStroke000000 svgStroke"/><path fill="#34a853" d="M6.5 10c-.3 0-.5.2-.5.5v1.8l-.7-.7c-.2-.2-.5-.2-.7 0l-.6.7v-1.8c0-.3-.2-.5-.5-.5s-.5.2-.5.5v3.2l.3.3h.4c.1 0 .1-.1.2-.1L5 12.7l1.2 1.2h.1s.1 0 .1.1h.4s.1 0 .1-.1c0 0 .1 0 .1-.1v-3.3c0-.3-.2-.5-.5-.5zM11.5 10c-.3 0-.5.2-.5.5v1.8l-.7-.7c-.2-.2-.5-.2-.7 0l-.6.7v-1.8c0-.3-.2-.5-.5-.5s-.5.2-.5.5v3.2l.3.3h.4c.1 0 .1-.1.2-.1l1.1-1.2 1.2 1.2h.1s.1 0 .1.1h.4s.1 0 .1-.1c0 0 .1 0 .1-.1v-3.3c0-.3-.2-.5-.5-.5zM16.5 10c-.3 0-.5.2-.5.5v1.8l-.7-.7c-.2-.2-.5-.2-.7 0l-.6.7v-1.8c0-.3-.2-.5-.5-.5s-.5.2-.5.5v3.2l.3.3h.4c.1 0 .1-.1.2-.1l1.1-1.2 1.2 1.2h.1s.1 0 .1.1h.4s.1 0 .1-.1c0 0 .1 0 .1-.1v-3.3c0-.3-.2-.5-.5-.5z" class="color000000 svgShape"/><circle cx="15.5" cy="4.5" r=".5" fill="#34a853" class="color000000 svgShape"/><circle cx="13.5" cy="4.5" r=".5" fill="#34a853" class="color000000 svgShape"/><circle cx="11.5" cy="4.5" r=".5" fill="#34a853" class="color000000 svgShape"/><path fill="none" stroke="#4285f4" stroke-linecap="round" stroke-linejoin="round" stroke-miterlimit="10" d="M2 6.5h16" class="colorStroke000000 svgStroke"/></svg>