<svg xmlns="http://www.w3.org/2000/svg" viewBox="0 0 32 32"><path fill="#d8a353" d="M19.2 19.4c-.2 0-.4-.1-.5-.4l-1.3-4.7c-.9-3.2.9-6.5 4-7.5l8-2.7c.2-.1.3 0 .5.1 0 0 .1.1.1.3V13c0 3.3-2.6 6-5.9 6.1l-4.9.3zM29 5.2l-7.4 2.5c-2.6.9-4.1 3.7-3.3 6.3l1.2 4.3 4.5-.2c2.7-.1 4.9-2.4 4.9-5.2l.1-7.7z" class="color000000 svgShape"/><path fill="#d8a353" d="M24.8 11.6c-.2 0-.5-.2-.5-.4 0-.3.1-.5.4-.6l2.5-.4c.3 0 .5.1.6.4 0 .3-.1.5-.4.6l-2.6.4zm-1.5 2c-.2 0-.5-.2-.5-.4l-.6-3.5c0-.3.1-.5.4-.6.3 0 .5.1.6.4l.6 3.5c0 .3-.2.6-.5.6zm-1.5 2.1c-.2 0-.5-.2-.5-.4 0-.3.1-.5.4-.6l3.5-.6c.3 0 .5.1.6.4 0 .3-.1.5-.4.6l-3.6.6c.1 0 0 0 0 0zm-1.5 2c-.2 0-.5-.2-.5-.4l-.5-2.9c0-.3.1-.5.4-.6.3 0 .5.1.6.4l.5 2.9c.1.3-.1.6-.5.6.1 0 .1 0 0 0z" class="color000000 svgShape"/><path fill="#d8a353" d="M19.2 19.4c-.1 0-.2 0-.3-.1-.2-.2-.3-.5-.1-.7l7.9-11c.2-.2.5-.3.7-.1.2.2.3.5.1.7l-7.9 11c-.1.1-.3.2-.4.2zm-5.3-.6-5.4-.3c-3.6-.2-6.4-3.1-6.4-6.7L2 2.5c0-.2.1-.3.2-.4.1-.1.3-.1.5-.1l8.8 3c3.4 1.2 5.3 4.8 4.3 8.2l-1.5 5.2c0 .3-.2.4-.4.4zM3 3.2l.1 8.6c0 3.1 2.4 5.6 5.5 5.7l5 .2 1.3-4.8c.8-2.9-.8-6-3.7-7L3 3.2zm12.4 9.9z" class="color000000 svgShape"/><path fill="#d8a353" d="m7.7 10.2-2.8-.4c-.3 0-.5-.3-.4-.6 0-.3.3-.5.6-.4l2.7.4c.3 0 .5.3.4.6 0 .3-.2.4-.5.4zm1.7 2.3c-.1 0-.1 0 0 0-.4-.1-.5-.3-.5-.6L9.5 8c0-.3.3-.5.6-.4.3 0 .5.3.4.6l-.6 3.9c-.1.2-.3.4-.5.4zm1.6 2.3s-.1 0 0 0l-4-.6c-.3 0-.5-.3-.4-.6 0-.3.3-.5.6-.4l3.9.6c.3 0 .5.3.4.6-.1.2-.3.4-.5.4zm1.6 2.2c-.4-.1-.5-.3-.5-.6l.5-3.2c0-.3.3-.5.6-.4.3 0 .5.3.4.6l-.5 3.2c0 .2-.2.4-.5.4zm3.2 9.2c-.3 0-.5-.2-.5-.5 0-.4.1-.8.1-1.2.2-1.3.8-2.5 1.6-3.6l1.7-2.3c.2-.2.5-.3.7-.1.2.2.3.5.1.7l-1.7 2.3c-.7.9-1.2 2-1.4 3.2-.1.3-.1.7-.1 1.1 0 .2-.2.4-.5.4z" class="color000000 svgShape"/><path fill="#d8a353" d="M14.1 30c-.1 0-.2 0-.3-.1-.2-.2-.3-.5-.1-.7.9-1.2 1.5-2.7 1.7-4.2v-.5c.1-2-.5-3.9-1.6-5.5L4.7 6.4c-.2-.2-.1-.5.1-.7.2-.1.6-.1.7.1l9.1 12.6c1.3 1.8 1.9 3.9 1.8 6.1v.5c-.2 1.7-.8 3.3-1.8 4.7-.2.2-.3.3-.5.3z" class="color000000 svgShape"/></svg>