<svg xmlns="http://www.w3.org/2000/svg" enable-background="new 0 0 20 20" viewBox="0 0 20 20"><path fill="#34a853" d="M8.1 6.4 9.5 13h1L9 6z" class="color000000 svgShape"/><path fill="none" stroke="#4285f4" stroke-linecap="round" stroke-linejoin="round" stroke-miterlimit="10" d="M7.5 2.1c-2.4.5-3.9 3-3.4 5.4l1.8-.4 7-1.6c-.6-2.4-3-3.9-5.4-3.4M12.9 5.5c-.5-2.4-3-3.9-5.4-3.4M7.5 2.1c-2.4.5-3.9 3-3.4 5.4" class="colorStroke000000 svgStroke"/><path fill="none" stroke="#4285f4" stroke-linecap="round" stroke-linejoin="round" stroke-miterlimit="10" d="M6.9 6.8c-.5-2.4-.2-4.5.7-4.7s2 1.5 2.6 3.9" class="colorStroke000000 svgStroke"/><path fill="#34a853" d="M6.8 15 6 16.3c-.1.2-.1.5.2.7.2.1.5.1.7-.2l1-1.7V15H13v.1l1 1.7c.1.2.4.3.7.2.2-.1.3-.5.2-.7l-.7-1.3H6.8z" class="color000000 svgShape"/><g fill="#34a853" class="color000000 svgShape"><path fill="none" stroke="#4285f4" stroke-miterlimit="10" d="M9.5 13h-2l-2.8-2.8c-.4-.4-1-.4-1.4 0-.4.4-.4 1 0 1.4l2.8 2.8c.3.3.4.6.7.6H15c.6 0 1-.4 1-1s-.4-1-1-1H9.5z" class="colorStroke000000 svgStroke"/></g></svg>