<svg xmlns="http://www.w3.org/2000/svg" viewBox="0 0 20 20"><path fill="none" stroke="#000" stroke-linecap="round" stroke-linejoin="round" stroke-miterlimit="10" d="M16.5 8.5h-.2l-.7-4.3c-.2-1-1-1.7-2-1.7H7.3c-1 0-1.8.7-2 1.7l-.7 4.3h-.1c-.6 0-1 .5-1 1v4c0 .6.4 1 1 1h1v1c0 .5.5 1 1 1s1-.4 1-1v-1h6v1c0 .5.5 1 1 1s1-.4 1-1v-1h1c.6 0 1-.4 1-1v-4c0-.5-.5-1-1-1z"/><path fill="none" stroke="#000" stroke-linecap="round" stroke-linejoin="round" stroke-miterlimit="10" d="M7.3 4.5H13.6l.7 4H6.6l.7-4zm-.8 8c-.6 0-1-.4-1-1s.4-1 1-1 1 .4 1 1-.5 1-1 1zm8 0c-.6 0-1-.4-1-1s.4-1 1-1 1 .4 1 1-.5 1-1 1z"/></svg>