<svg xmlns="http://www.w3.org/2000/svg" id="Layer_1" x="0" y="0" enable-background="new 0 0 20 20" version="1.1" viewBox="0 0 20 20" xml:space="preserve"><path id="XMLID_187_" fill="none" stroke="#000" stroke-miterlimit="10" d="M16 8.3c0-.6-.4-1-1-1H5c-.6 0-1 .4-1 1v6c0 .6.4 1 1 1h10c.6 0 1-.4 1-1v-6z"/><g id="XMLID_185_"><path id="XMLID_186_" d="M12.5 8.8c-.3 0-.5-.2-.5-.5V5.8c0-.3-.2-.5-.5-.5h-3c-.3 0-.5.2-.5.5v2.5c0 .3-.2.5-.5.5S7 8.6 7 8.3V5.8c0-.8.7-1.5 1.5-1.5h3c.8 0 1.5.7 1.5 1.5v2.5c0 .3-.2.5-.5.5z"/></g></svg>