<svg xmlns="http://www.w3.org/2000/svg" enable-background="new 0 0 20 20" viewBox="0 0 20 20"><circle cx="10" cy="10.1" r="7" fill="none" stroke="#000" stroke-miterlimit="10"/><path d="M16.3 7.1L13 10.2h1.4L16.7 8c-.1-.3-.2-.6-.4-.9zM16.2 10.1h.8v-.7l-.8.7zM10 3.1v.5l.5-.5c-.2.1-.3 0-.5 0z"/><path fill="none" stroke="#000" stroke-linecap="round" stroke-linejoin="round" stroke-miterlimit="10" d="M10 10.1h7c0 3.9-3 7-7 7v-7z"/><path fill="none" stroke="#000" stroke-linecap="round" stroke-linejoin="round" stroke-miterlimit="10" d="M14.9 15.1l-4.9-5v7c2 .1 3.5-.6 4.9-2zM10 10.1v-7"/><path d="m15.2 5.4-5 4.8h1.4l4.2-4.1c-.1-.3-.3-.5-.6-.7zM10.4 8.5 14.2 5c-.3-.2-.3-.4-.6-.6l-3.2 2.8v1.3zM10.4 5.7l2-1.9c-.3-.1-.4-.3-.8-.4l-1.2.9v1.4z"/></svg>