<svg xmlns="http://www.w3.org/2000/svg" viewBox="0 0 20 20"><path d="M8.5 5c-.3 0-.5-.2-.5-.5v-1c0-.3.2-.5.5-.5s.5.2.5.5v1c0 .3-.2.5-.5.5zM4.7 7.1c-.1.2-.5.3-.7.1l-.8-.5c-.3-.2-.3-.5-.2-.7.2-.2.5-.3.7-.2l.8.5c.3.2.4.5.2.8zM6.3 5.6c.2-.1.3-.4.2-.7L6 4c-.1-.2-.4-.3-.7-.2-.2.1-.3.4-.2.7l.5.9c.1.2.5.3.7.2zM10.9 5.7c-.2-.2-.3-.5-.2-.7l.5-.8c.2-.2.5-.3.8-.2.2.2.3.5.2.7l-.5.8c-.3.3-.6.4-.8.2zM2 9.5c0-.3.2-.5.5-.5h1c.3 0 .5.2.5.5s-.2.5-.5.5h-1c-.3 0-.5-.2-.5-.5z"/><path fill="none" stroke="#000" stroke-linecap="round" stroke-linejoin="round" stroke-miterlimit="10" d="M15.3 9.3c-.2-1.5-1.5-2.7-3-2.7-1.4 0-2.6 1-2.9 2.3-.2-.1-.4-.1-.6-.1-1.3 0-2.4.9-2.6 2.2 0 0 0 0 0 0C5 11 4 12 4 13.3s1 2.3 2.2 2.3H15c1.7 0 3.1-1.4 3.1-3.1-.1-1.7-1.3-3-2.8-3.2z"/><path fill="none" stroke="#000" stroke-linecap="round" stroke-linejoin="round" stroke-miterlimit="10" d="M6.2 11s0 0 0 0c.3-1.2 1.3-2.2 2.6-2.2.2 0 .4 0 .6.1.2-.7.6-1.2 1.1-1.6-.5-.5-1.2-.8-2-.8-1.7 0-3 1.3-3 3 0 .6.2 1.1.4 1.5h.3z"/></svg>