<svg xmlns="http://www.w3.org/2000/svg" viewBox="0 0 20 20"><path fill="none" stroke="#000" stroke-miterlimit="10" d="M3.3 7.4c-1-.3-1.8-1.2-1.8-2.4 0-1.4 1.1-2.5 2.5-2.5 1.1 0 2.1.8 2.4 1.8M13.6 4.4c.3-1.1 1.3-1.9 2.4-1.9 1.4 0 2.5 1.1 2.5 2.5 0 1.2-.8 2.2-1.9 2.4"/><circle cx="15.9" cy="5.2" r="1"/><circle cx="4.1" cy="5.2" r="1"/><path fill="none" stroke="#000" stroke-miterlimit="10" d="M15 9.7c0-1.7-1.4-3.1-3.1-3.1-.7 0-1.4.2-1.9.6-.5-.4-1.2-.7-1.9-.7C6.4 6.5 5 7.9 5 9.7c0 1.3.8 2.5 2 2.9-.1.3-.1.5-.1.8 0 1.7 1.4 3.1 3.1 3.1s3.1-1.4 3.1-3.1c0-.3-.1-.6-.1-.8 1.2-.5 2-1.6 2-2.9z"/><circle cx="8" cy="10" r="1" fill="none" stroke="#000" stroke-miterlimit="10"/><circle cx="12" cy="10" r="1" fill="none" stroke="#000" stroke-miterlimit="10"/><path d="M10.5 14.5c0 .3-.2 0-.5 0v.5c-.3 0-.5-.2-.5-.5V13c0-.3.2-.5.5-.5s.5.2.5.5v1.5z"/><path d="M10 15c-.7 0-1.3-.2-1.8-.6-.2-.1-.3-.4-.1-.7.2-.2.5-.3.7-.1.7.5 1.7.5 2.4 0 .2-.2.5-.1.7.1.2.2.1.5-.1.7-.5.4-1.1.6-1.8.6zM10.5 13h-1c-.3 0-.5-.2-.5-.5 0-.2.2-.5.5-.5h1c.3 0 .5.2.5.5s-.2.5-.5.5z"/><circle cx="10" cy="11" r="7.5" fill="none" stroke="#000" stroke-miterlimit="10"/></svg>