<svg xmlns="http://www.w3.org/2000/svg" id="Layer_1" x="0" y="0" enable-background="new 0 0 20 20" version="1.1" viewBox="0 0 20 20" xml:space="preserve"><g id="XMLID_2060_"><path id="XMLID_1922_" d="M10 12c-2.8 0-5-2.2-5-5s2.2-5 5-5 5 2.2 5 5-2.2 5-5 5zm0-9C7.8 3 6 4.8 6 7s1.8 4 4 4 4-1.8 4-4-1.8-4-4-4z"/></g><g id="XMLID_1995_"><path id="XMLID_2302_" d="M10 14c-3.9 0-7-3.1-7-7 0-.3.2-.5.5-.5s.5.2.5.5c0 3.3 2.7 6 6 6s6-2.7 6-6c0-.3.2-.5.5-.5s.5.2.5.5c0 3.9-3.1 7-7 7z"/></g><g id="XMLID_1930_"><path id="XMLID_2304_" d="M5 8H4c-.3 0-.5-.2-.5-.5S3.7 7 4 7h1c.3 0 .5.2.5.5S5.3 8 5 8z"/></g><g id="XMLID_1929_"><path id="XMLID_2303_" d="M16.3 8h-1.8c-.3 0-.5-.2-.5-.5s.2-.5.5-.5h1.8c.3 0 .5.2.5.5s-.3.5-.5.5z"/></g><g id="XMLID_1928_"><path id="XMLID_2307_" d="M10 17.5c-.3 0-.5-.2-.5-.5v-3c0-.3.2-.5.5-.5s.5.2.5.5v3c0 .3-.2.5-.5.5z"/></g><g id="XMLID_1927_"><path id="XMLID_2308_" d="M12.5 18h-5c-.3 0-.5-.2-.5-.5s.2-.5.5-.5h5c.3 0 .5.2.5.5s-.2.5-.5.5z"/></g><g id="XMLID_1926_"><path id="XMLID_2306_" d="M11.5 8c-.1 0-.3 0-.4-.1-.2-.2-.2-.5 0-.7l1-1c.2-.2.5-.2.7 0s.2.5 0 .7l-1 1c0 .1-.2.1-.3.1z"/></g><g id="XMLID_1925_"><path id="XMLID_2305_" d="M9 8c-.1 0-.3 0-.4-.1-.2-.2-.2-.5 0-.7l2.5-2.5c.2-.2.5-.2.7 0s.2.5 0 .7L9.4 7.9c-.1.1-.3.1-.4.1z"/></g><circle id="XMLID_1924_" cx="10.5" cy="8.5" r=".5"/></svg>