<svg xmlns="http://www.w3.org/2000/svg" enable-background="new 0 0 20 20" viewBox="0 0 20 20"><path d="M13.6 14.2c-1 1-2.2 1.5-3.6 1.5s-2.6-.5-3.6-1.5c-.2-.2-.2-.5 0-.6.2-.2.5-.2.6 0 .8.8 1.8 1.2 2.9 1.2 1.1 0 2.2-.4 2.9-1.2.2-.2.5-.2.6 0 .4.1.4.4.2.6z"/><path fill="none" stroke="#000" stroke-miterlimit="10" d="M12.2 4.6c.4-.7 1.1-1.1 2-1.1 1.3 0 2.3 1 2.3 2.3 0 .9-.5 1.6-1.2 2M4.8 7.8c-.7-.4-1.2-1.1-1.2-2 0-1.3 1-2.3 2.3-2.3.8 0 1.6.4 2 1.1"/><path fill="none" stroke="#000" stroke-miterlimit="10" d="M15.4 10.7c.1-.3.1-.7.1-1 0-3-2.5-5.5-5.5-5.5S4.5 6.6 4.5 9.7c0 .3 0 .7.1 1-.6.6-1 1.4-1 2.2 0 2.3 2.9 4.1 6.4 4.1 3.5 0 6.4-1.8 6.4-4.1 0-.8-.4-1.6-1-2.2z"/><ellipse cx="12.3" cy="9.2" fill="none" stroke="#000" stroke-miterlimit="10" rx=".9" ry="1.4"/><circle cx="10" cy="12.5" r=".9" fill="none" stroke="#000" stroke-miterlimit="10"/><ellipse cx="7.7" cy="9.2" fill="none" stroke="#000" stroke-miterlimit="10" rx=".9" ry="1.4"/></svg>