<svg xmlns="http://www.w3.org/2000/svg" viewBox="0 0 20 20"><path fill="none" stroke="#000" stroke-linecap="round" stroke-linejoin="round" stroke-miterlimit="10" d="m16.5 10.6-1.7-1.1 1.7-1.1c.5-.3.6-.9.3-1.4L15 4.3c-.3-.5-1-.6-1.4-.3l-1 .6V3.5c0-.6-.3-1-.9-1H8.4c-.6 0-.9.4-.9 1v1.2l-1-.7c-.5-.3-1.1-.2-1.4.3L3.3 7c-.3.5-.2 1.1.2 1.4l1.6 1.1-1.7 1.1c-.5.3-.6.9-.3 1.4L5 14.7c.3.5 1 .6 1.4.3l1-.6v1.2c0 .6.3 1 .9 1h3.3c.6 0 .9-.4.9-1v-1.2l1 .6c.5.3 1.1.2 1.4-.3l1.8-2.7c.3-.5.2-1.1-.2-1.4z"/><path d="M10 4c-.3 0-.5.2-.5.5v10c0 .3.2.5.5.5s.5-.2.5-.5v-10c0-.3-.3-.5-.5-.5z"/><path d="M11.7 13.6h-.1l-3.3-.8h-.1c-.4-.2-.6-.6-.6-1s.2-.8.6-1h.1l3-.2c.1-.1.1-.2.1-.2s0-.2-.2-.2l-2.4-.5c-.5-.1-.8-.5-.9-1 0-.4.2-.9.6-1.1h.1l2.2-.5c.1-.1.1-.1.1-.2 0 0 0-.1-.1-.2l-1.7-.5c-.3-.1-.4-.3-.3-.6.1-.2.3-.4.6-.3l1.8.6s.1 0 .1.1c.3.2.5.6.5 1s-.3.7-.6.9h-.1l-2.2.5c-.1.1-.1.2-.1.2s0 .2.2.2l2.5.4c.5.1.8.5.9 1 .1.5-.2.9-.6 1.1h-.1l-3 .2c-.1.1-.1.1-.1.2 0 0 0 .1.1.2l3.2.8c.2.1.4.3.3.5-.1.3-.3.4-.5.4z"/></svg>